<?xml version="1.0" standalone="no"?>
<!DOCTYPE svg PUBLIC "-//W3C//DTD SVG 20010904//EN"
 "http://www.w3.org/TR/2001/REC-SVG-20010904/DTD/svg10.dtd">
<svg version="1.0" xmlns="http://www.w3.org/2000/svg"
 width="708.000000pt" height="200.000000pt" viewBox="0 0 708.000000 200.000000"
 preserveAspectRatio="xMidYMid meet">

<g transform="translate(0.000000,200.000000) scale(0.100000,-0.100000)"
fill="#000000" stroke="none">
<path d="M0 1000 l0 -1000 3540 0 3540 0 0 1000 0 1000 -3540 0 -3540 0 0
-1000z m1153 684 c15 -4 27 -9 27 -13 0 -4 -24 -27 -52 -51 -29 -24 -75 -70
-103 -102 l-50 -59 -57 6 c-31 4 -85 8 -120 9 -35 1 -73 8 -85 14 l-23 13 26
52 c47 93 68 114 126 126 29 6 62 13 73 15 24 6 199 -2 238 -10z m150 -60 c51
-26 125 -78 139 -99 13 -18 9 -133 -8 -206 -14 -61 -18 -69 -39 -69 -13 0 -27
-5 -30 -10 -4 -6 -29 10 -58 36 -64 57 -133 102 -209 135 -32 13 -58 27 -58
31 0 20 186 208 206 208 3 0 28 -12 57 -26z m-626 -54 c-25 -46 -40 -62 -65
-71 -18 -6 -43 -24 -55 -41 -12 -16 -44 -41 -70 -54 l-48 -25 16 32 c24 45
139 155 199 189 28 17 52 30 53 30 1 0 -12 -27 -30 -60z m872 -166 c132 -197
147 -453 38 -667 l-42 -82 -6 115 c-5 80 -14 136 -30 185 -23 67 -32 165 -27
285 1 25 2 91 3 147 0 55 3 99 7 97 4 -3 29 -38 57 -80z m-874 26 c0 -21 -5
-26 -33 -28 -22 -2 -34 2 -38 12 -9 24 16 47 45 44 20 -2 26 -9 26 -28z m237
-38 c5 -5 -9 -44 -31 -88 -51 -100 -87 -211 -102 -305 -18 -118 -18 -119 -38
-119 -13 0 -25 15 -39 48 -45 106 -57 163 -57 291 0 111 2 125 19 135 10 6 31
21 45 34 24 21 32 23 111 17 46 -3 88 -9 92 -13z m3748 -72 l0 -79 68 -3 67
-3 0 -55 0 -55 -67 -3 -68 -3 0 -138 c0 -155 1 -157 71 -169 39 -7 44 -11 51
-42 4 -19 4 -45 1 -57 -5 -22 -10 -23 -108 -23 -96 0 -106 2 -133 25 -41 34
-52 92 -52 265 l0 140 -39 0 c-42 0 -51 11 -51 60 0 49 9 60 50 60 l37 0 7 58
c10 88 24 102 102 102 l64 0 0 -80z m1970 0 l0 -79 68 -3 67 -3 0 -55 0 -55
-67 -3 -68 -3 0 -138 c0 -155 1 -157 71 -169 39 -7 44 -11 51 -42 4 -19 5 -45
3 -57 -5 -22 -10 -23 -109 -23 -97 0 -107 2 -134 25 -41 34 -52 92 -52 265 l0
140 -39 0 c-42 0 -51 11 -51 60 0 49 9 60 50 60 l37 0 7 58 c10 88 24 102 102
102 l64 0 0 -80z m-6057 48 c14 -11 15 -23 8 -88 -12 -115 3 -234 43 -341 l34
-92 -20 -27 -20 -28 -66 15 c-66 15 -155 45 -179 61 -33 21 -41 244 -13 332
38 117 38 116 98 143 95 41 93 41 115 25z m488 -22 c70 -32 146 -81 200 -130
39 -35 44 -46 49 -95 l7 -56 -56 -56 c-73 -72 -137 -115 -232 -155 -112 -47
-138 -50 -173 -18 -27 24 -29 28 -23 89 12 127 79 325 143 423 18 27 20 27 85
-2z m1319 -115 c56 -18 62 -24 55 -62 -3 -19 -14 -44 -23 -56 l-17 -22 -55 19
c-72 25 -126 26 -139 1 -15 -28 5 -47 82 -75 89 -33 125 -60 148 -110 70 -154
-71 -279 -276 -246 -76 12 -145 41 -145 60 0 15 36 100 42 100 2 0 27 -9 56
-20 58 -22 132 -26 150 -8 26 26 13 48 -40 73 -29 14 -58 25 -64 25 -21 0 -94
60 -109 91 -46 87 -1 197 96 239 29 12 191 6 239 -9z m522 9 c20 -6 47 -23 60
-38 l23 -28 40 28 c22 15 61 33 87 40 42 11 53 10 95 -8 80 -33 87 -55 95
-284 3 -107 8 -206 10 -220 3 -21 -3 -27 -37 -39 -26 -9 -55 -11 -78 -7 -59
11 -67 38 -67 219 0 168 -6 190 -54 190 -14 0 -36 -9 -46 -18 -19 -17 -20 -32
-20 -200 l0 -183 -45 -6 c-25 -4 -65 -4 -90 -1 l-45 7 -2 190 c-3 179 -4 191
-23 204 -18 12 -26 11 -55 -4 l-35 -17 -3 -187 -2 -186 -39 -7 c-22 -4 -60 -3
-85 0 l-46 7 0 274 0 274 56 0 c49 0 59 -4 83 -29 l28 -30 34 23 c64 43 103
52 161 36z m871 -14 c73 -36 81 -59 87 -252 4 -123 9 -176 19 -187 15 -19 9
-52 -17 -86 -16 -19 -24 -22 -51 -16 -17 4 -44 18 -60 31 l-29 24 -26 -21
c-65 -51 -166 -57 -229 -15 -49 32 -69 80 -65 151 6 111 72 165 211 173 68 4
77 7 77 24 0 62 -50 78 -158 50 l-74 -19 -14 22 c-8 12 -15 39 -17 61 -2 37 0
39 37 52 106 35 245 39 309 8z m303 3 c12 -4 34 -23 51 -43 l29 -36 18 30 c24
41 65 60 132 60 l57 0 -6 -45 c-4 -24 -13 -61 -22 -81 -14 -34 -17 -36 -50
-30 -39 8 -88 -13 -105 -43 -6 -11 -10 -90 -10 -184 l0 -164 -42 -7 c-22 -4
-61 -4 -85 0 l-43 6 0 202 c0 178 -2 205 -19 236 -17 32 -17 38 -4 65 30 59
32 60 99 34z m1112 6 c73 -31 112 -86 112 -159 0 -66 -34 -92 -111 -84 -31 3
-34 6 -37 38 -4 54 -21 88 -48 94 -62 16 -88 -41 -82 -175 4 -76 7 -92 28
-114 29 -31 89 -34 144 -5 47 23 66 16 91 -35 16 -35 16 -37 -2 -51 -48 -40
-127 -67 -192 -68 -116 -1 -195 55 -227 161 -18 58 -20 183 -5 240 16 59 68
124 121 151 53 27 152 30 208 7z m555 -9 c73 -36 81 -59 87 -252 4 -123 9
-176 19 -187 15 -19 9 -52 -17 -86 -16 -19 -24 -22 -51 -16 -17 4 -44 18 -60
31 l-29 24 -26 -21 c-39 -30 -111 -50 -158 -43 -85 14 -138 79 -138 169 1 111
75 175 212 183 69 4 78 7 78 24 0 62 -50 78 -158 50 -79 -20 -82 -20 -101 37
-21 62 -17 67 57 85 100 23 111 24 182 22 38 -1 80 -9 103 -20z m303 3 c12 -4
34 -23 51 -43 l29 -36 18 30 c24 41 65 60 132 60 l57 0 -6 -45 c-4 -24 -13
-61 -22 -81 -14 -34 -17 -36 -50 -30 -39 8 -88 -13 -105 -43 -6 -11 -10 -91
-10 -184 l0 -165 -39 -7 c-22 -3 -60 -3 -85 0 l-46 7 0 202 c0 178 -2 205 -19
236 -17 32 -17 38 -4 65 30 59 32 60 99 34z m-4606 -106 c0 -26 -20 -53 -40
-53 -20 0 -40 27 -40 54 0 9 10 26 22 38 l21 21 19 -23 c10 -12 18 -29 18 -37z
m9 -172 c29 -70 49 -157 57 -251 l6 -85 -68 -64 -68 -64 -75 6 c-127 11 -281
71 -373 147 -31 26 -35 34 -29 58 6 23 18 30 87 53 124 40 218 94 303 175 63
60 81 73 108 72 28 -1 34 -7 52 -47z m-901 -201 c59 -18 75 -28 88 -51 18 -35
49 -57 106 -73 40 -12 43 -16 63 -77 12 -35 32 -84 44 -107 12 -24 21 -45 19
-47 -2 -2 -38 8 -80 21 -95 30 -209 105 -277 181 -42 47 -131 195 -131 217 0
4 21 -5 48 -18 26 -13 80 -34 120 -46z m260 43 c31 -28 35 -56 11 -86 -25 -33
-66 -35 -103 -6 -30 24 -35 69 -10 93 21 21 77 20 102 -1z m149 -238 c80 -47
158 -72 267 -88 l90 -13 -51 -22 c-76 -32 -169 -52 -250 -52 -70 0 -72 1 -91
33 -22 36 -72 170 -72 194 0 14 2 14 23 -1 12 -8 50 -32 84 -51z"/>
<path d="M3579 899 c-16 -16 -20 -28 -15 -52 8 -39 23 -49 64 -43 49 7 62 22
62 72 l0 44 -45 0 c-32 0 -51 -6 -66 -21z"/>
<path d="M5549 899 c-16 -16 -20 -28 -15 -52 8 -39 23 -49 64 -43 49 7 62 22
62 72 l0 44 -45 0 c-32 0 -51 -6 -66 -21z"/>
</g>
</svg>
