<?xml version="1.0" standalone="no"?>
<!DOCTYPE svg PUBLIC "-//W3C//DTD SVG 20010904//EN"
 "http://www.w3.org/TR/2001/REC-SVG-20010904/DTD/svg10.dtd">
<svg version="1.0" xmlns="http://www.w3.org/2000/svg"
 width="198.000000pt" height="197.000000pt" viewBox="0 0 198.000000 197.000000"
 preserveAspectRatio="xMidYMid meet">

<g transform="translate(0.000000,197.000000) scale(0.100000,-0.100000)"
fill="#000000" stroke="none">
<path d="M881 1659 c-79 -13 -102 -28 -139 -89 -63 -105 -55 -122 56 -126 35
-1 89 -5 120 -8 l57 -6 108 106 c60 58 107 107 105 109 -2 2 -33 9 -68 14 -76
13 -163 12 -239 0z"/>
<path d="M1198 1575 c-54 -46 -149 -151 -147 -163 0 -4 44 -28 97 -54 61 -30
120 -68 159 -103 34 -31 64 -51 68 -45 3 5 17 10 30 10 21 0 25 8 39 69 17 73
21 188 8 206 -20 29 -171 125 -196 125 -2 0 -28 -20 -58 -45z"/>
<path d="M654 1570 c-60 -34 -175 -144 -199 -189 l-16 -32 48 25 c26 13 58 38
70 54 12 17 37 35 55 41 25 9 40 25 65 71 18 33 31 60 30 60 -1 0 -25 -13 -53
-30z"/>
<path d="M1494 1353 c0 -54 -1 -118 -2 -143 -5 -121 5 -228 27 -295 16 -48 25
-103 28 -177 4 -66 9 -105 15 -102 6 4 25 38 44 77 100 208 81 470 -47 662
-28 41 -53 75 -57 75 -4 0 -7 -44 -8 -97z"/>
<path d="M611 1416 c-22 -26 -6 -48 31 -44 28 2 33 7 33 28 0 19 -6 26 -26 28
-14 2 -31 -4 -38 -12z"/>
<path d="M709 1358 c-14 -13 -35 -28 -45 -34 -17 -10 -19 -24 -19 -135 1 -129
15 -203 57 -301 14 -33 26 -48 39 -48 20 0 21 4 38 123 13 97 50 207 102 311
22 44 36 83 32 87 -5 5 -47 11 -93 14 -79 6 -87 4 -111 -17z"/>
<path d="M509 1335 c-51 -18 -103 -46 -112 -59 -4 -6 -17 -42 -29 -81 -17 -54
-22 -96 -22 -180 -1 -162 4 -178 64 -204 27 -12 84 -30 127 -40 l78 -19 22 27
c12 14 20 33 16 41 -64 160 -85 286 -71 428 6 66 5 79 -9 90 -20 14 -18 14
-64 -3z"/>
<path d="M976 1318 c-66 -101 -129 -292 -142 -430 -7 -64 -6 -67 22 -92 16
-14 35 -26 41 -26 19 0 163 49 203 70 62 32 157 109 192 156 31 42 33 49 28
100 -5 46 -12 59 -41 85 -76 67 -235 159 -275 159 -7 0 -20 -10 -28 -22z"/>
<path d="M1392 1132 c-24 -24 -27 -43 -12 -73 20 -37 70 -13 70 34 0 8 -8 25
-18 37 l-19 23 -21 -21z"/>
<path d="M1298 886 c-86 -83 -193 -144 -306 -175 -88 -24 -88 -25 -94 -56 -7
-33 36 -70 141 -121 103 -50 182 -73 273 -81 l76 -6 67 66 68 66 -7 83 c-8 93
-28 181 -57 249 -18 40 -24 46 -52 47 -27 1 -45 -12 -109 -72z"/>
<path d="M380 774 c0 -22 89 -170 131 -217 68 -76 182 -151 277 -181 42 -13
78 -23 80 -21 2 2 -7 23 -19 47 -12 23 -32 72 -44 107 -20 61 -23 65 -63 77
-57 16 -88 38 -106 73 -13 23 -29 33 -88 51 -40 12 -94 33 -120 46 -27 13 -48
22 -48 18z"/>
<path d="M706 754 c-40 -40 2 -114 65 -114 35 0 72 44 63 74 -14 50 -93 75
-128 40z"/>
<path d="M850 567 c0 -23 56 -175 75 -204 14 -21 23 -23 93 -23 86 0 178 19
255 52 l51 22 -90 13 c-134 19 -261 68 -361 139 -21 15 -23 15 -23 1z"/>
</g>
</svg>
