<?xml version="1.0" standalone="no"?>
<!DOCTYPE svg PUBLIC "-//W3C//DTD SVG 20010904//EN"
 "http://www.w3.org/TR/2001/REC-SVG-20010904/DTD/svg10.dtd">
<svg version="1.0" xmlns="http://www.w3.org/2000/svg"
 width="708.000000pt" height="200.000000pt" viewBox="0 0 708.000000 200.000000"
 preserveAspectRatio="xMidYMid meet">

<g transform="translate(0.000000,200.000000) scale(0.100000,-0.100000)"
fill="#000000" stroke="none">
<path d="M915 1694 c-11 -2 -44 -9 -73 -15 -58 -12 -79 -33 -126 -126 l-26
-52 23 -13 c12 -6 50 -13 85 -14 35 -1 89 -5 120 -9 l57 -6 50 59 c28 32 74
78 103 102 28 24 52 47 52 51 0 4 -12 9 -27 13 -39 8 -214 16 -238 10z"/>
<path d="M1188 1605 c-53 -45 -148 -150 -148 -163 0 -4 26 -18 58 -31 76 -33
145 -78 209 -135 29 -26 54 -42 58 -36 3 5 17 10 30 10 21 0 25 8 39 69 17 73
21 188 8 206 -20 29 -171 125 -196 125 -2 0 -28 -20 -58 -45z"/>
<path d="M654 1600 c-60 -34 -175 -144 -199 -189 l-16 -32 48 25 c26 13 58 38
70 54 12 17 37 35 55 41 25 9 40 25 65 71 18 33 31 60 30 60 -1 0 -25 -13 -53
-30z"/>
<path d="M1485 1387 c-1 -56 -2 -122 -3 -147 -5 -120 4 -218 27 -285 16 -49
25 -105 30 -185 l6 -115 42 82 c109 214 94 470 -38 667 -28 42 -53 77 -57 80
-4 2 -7 -42 -7 -97z"/>
<path d="M611 1446 c-22 -26 -6 -48 31 -44 28 2 33 7 33 28 0 19 -6 26 -26 28
-14 2 -31 -4 -38 -12z"/>
<path d="M709 1388 c-14 -13 -35 -28 -45 -34 -17 -10 -19 -24 -19 -135 0 -128
12 -185 57 -291 14 -33 26 -48 39 -48 20 0 20 1 38 119 15 94 51 205 102 305
22 44 36 83 31 88 -4 4 -46 10 -92 13 -79 6 -87 4 -111 -17z"/>
<path d="M4516 1378 c-9 -12 -18 -48 -22 -80 l-7 -58 -37 0 c-41 0 -50 -11
-50 -60 0 -49 9 -60 51 -60 l39 0 0 -140 c0 -173 11 -231 52 -265 27 -23 37
-25 133 -25 98 0 103 1 108 23 3 12 3 38 -1 57 -7 31 -12 35 -51 42 -70 12
-71 14 -71 169 l0 138 68 3 67 3 0 55 0 55 -67 3 -68 3 0 79 0 80 -64 0 c-55
0 -67 -3 -80 -22z"/>
<path d="M6486 1378 c-9 -12 -18 -48 -22 -80 l-7 -58 -37 0 c-41 0 -50 -11
-50 -60 0 -49 9 -60 51 -60 l39 0 0 -140 c0 -173 11 -231 52 -265 27 -23 37
-25 134 -25 99 0 104 1 109 23 2 12 1 38 -3 57 -7 31 -12 35 -51 42 -70 12
-71 14 -71 169 l0 138 68 3 67 3 0 55 0 55 -67 3 -68 3 0 79 0 80 -64 0 c-55
0 -67 -3 -80 -22z"/>
<path d="M530 1373 c-8 -3 -41 -17 -72 -30 -60 -27 -60 -26 -98 -143 -28 -88
-20 -311 13 -332 24 -16 113 -46 179 -61 l66 -15 20 28 20 27 -34 92 c-40 107
-55 226 -43 341 7 65 6 77 -8 88 -18 13 -20 13 -43 5z"/>
<path d="M976 1348 c-64 -98 -131 -296 -143 -423 -6 -61 -4 -65 23 -89 35 -32
61 -29 173 18 95 40 159 83 232 155 l56 56 -7 56 c-5 49 -10 60 -49 95 -54 49
-130 98 -200 130 -65 29 -67 29 -85 2z"/>
<path d="M2141 1240 c-97 -42 -142 -152 -96 -239 15 -31 88 -91 109 -91 6 0
35 -11 64 -25 53 -25 66 -47 40 -73 -18 -18 -92 -14 -150 8 -29 11 -54 20 -56
20 -6 0 -42 -85 -42 -100 0 -19 69 -48 145 -60 66 -11 156 0 202 23 84 44 114
134 74 223 -23 50 -59 77 -148 110 -77 28 -97 47 -82 75 13 25 67 24 139 -1
l55 -19 17 22 c23 31 33 88 16 98 -45 30 -239 49 -287 29z"/>
<path d="M2805 1238 c-16 -6 -45 -21 -64 -34 l-34 -23 -28 30 c-24 25 -34 29
-83 29 l-56 0 0 -274 0 -274 46 -7 c25 -3 63 -4 85 0 l39 7 2 186 3 187 35 17
c29 15 37 16 55 4 19 -13 20 -25 23 -204 l2 -190 45 -7 c25 -3 65 -3 90 1 l45
6 0 183 c0 168 1 183 20 200 10 9 32 18 46 18 48 0 54 -22 54 -190 0 -181 8
-208 67 -219 23 -4 52 -2 78 7 34 12 40 18 37 39 -2 14 -7 113 -10 220 -8 229
-15 251 -95 284 -42 18 -53 19 -95 8 -26 -7 -65 -25 -87 -40 l-40 -28 -23 28
c-21 25 -77 49 -112 47 -8 0 -28 -5 -45 -11z"/>
<path d="M3554 1240 c-28 -5 -68 -15 -90 -22 -37 -13 -39 -15 -37 -52 2 -22 9
-49 17 -61 l14 -22 74 19 c108 28 158 12 158 -50 0 -17 -9 -20 -77 -24 -139
-8 -205 -62 -211 -173 -4 -71 16 -119 65 -151 63 -42 164 -36 229 15 l26 21
29 -24 c16 -13 43 -27 60 -31 27 -6 35 -3 51 16 26 34 32 67 17 86 -10 11 -15
64 -19 187 -6 193 -14 216 -87 252 -44 21 -143 27 -219 14z m136 -364 c0 -50
-13 -65 -62 -72 -41 -6 -56 4 -64 43 -9 45 22 73 81 73 l45 0 0 -44z"/>
<path d="M4003 1238 c-6 -7 -17 -26 -26 -43 -13 -27 -13 -33 4 -65 17 -31 19
-58 19 -236 l0 -202 43 -6 c24 -4 63 -4 85 0 l42 7 0 164 c0 94 4 173 10 184
17 30 66 51 105 43 33 -6 36 -4 50 30 9 20 18 57 22 81 l6 45 -57 0 c-67 0
-108 -19 -132 -60 l-18 -30 -29 36 c-17 20 -39 39 -51 43 -51 19 -64 21 -73 9z"/>
<path d="M4980 1228 c-53 -27 -105 -92 -121 -151 -15 -57 -13 -182 5 -240 32
-106 111 -162 227 -161 65 1 144 28 192 68 18 14 18 16 2 51 -25 51 -44 58
-91 35 -55 -29 -115 -26 -144 5 -21 22 -24 38 -28 114 -6 134 20 191 82 175
27 -6 44 -40 48 -94 3 -32 6 -35 37 -38 77 -8 111 18 111 84 0 106 -83 174
-213 174 -45 0 -75 -6 -107 -22z"/>
<path d="M5550 1244 c-14 -3 -55 -12 -92 -20 -74 -18 -78 -23 -57 -85 19 -57
22 -57 101 -37 108 28 158 12 158 -50 0 -17 -9 -20 -78 -24 -137 -8 -211 -72
-212 -183 0 -90 53 -155 138 -169 47 -7 119 13 158 43 l26 21 29 -24 c16 -13
43 -27 60 -31 27 -6 35 -3 51 16 26 34 32 67 17 86 -10 11 -15 64 -19 187 -6
193 -14 216 -87 252 -37 18 -140 27 -193 18z m110 -368 c0 -50 -13 -65 -62
-72 -41 -6 -56 4 -64 43 -9 45 22 73 81 73 l45 0 0 -44z"/>
<path d="M5973 1238 c-6 -7 -17 -26 -26 -43 -13 -27 -13 -33 4 -65 17 -31 19
-58 19 -236 l0 -202 46 -7 c25 -3 63 -3 85 0 l39 7 0 165 c0 93 4 173 10 184
17 30 66 51 105 43 33 -6 36 -4 50 30 9 20 18 57 22 81 l6 45 -57 0 c-67 0
-108 -19 -132 -60 l-18 -30 -29 36 c-17 20 -39 39 -51 43 -51 19 -64 21 -73 9z"/>
<path d="M1382 1162 c-24 -24 -27 -43 -12 -73 20 -37 70 -13 70 34 0 8 -8 25
-18 37 l-19 23 -21 -21z"/>
<path d="M1289 926 c-85 -81 -179 -135 -303 -175 -69 -23 -81 -30 -87 -53 -6
-24 -2 -32 29 -58 92 -76 246 -136 373 -147 l75 -6 68 64 68 64 -6 85 c-8 94
-28 181 -57 251 -18 40 -24 46 -52 47 -27 1 -45 -12 -108 -72z"/>
<path d="M380 814 c0 -22 89 -170 131 -217 68 -76 182 -151 277 -181 42 -13
78 -23 80 -21 2 2 -7 23 -19 47 -12 23 -32 72 -44 107 -20 61 -23 65 -63 77
-57 16 -88 38 -106 73 -13 23 -29 33 -88 51 -40 12 -94 33 -120 46 -27 13 -48
22 -48 18z"/>
<path d="M706 794 c-40 -40 2 -114 65 -114 35 0 72 44 63 74 -14 50 -93 75
-128 40z"/>
<path d="M850 607 c0 -24 50 -158 72 -194 19 -32 21 -33 91 -33 81 0 174 20
250 52 l51 22 -90 13 c-134 19 -245 63 -351 139 -21 15 -23 15 -23 1z"/>
</g>
</svg>
